<?xml version="1.0" encoding="UTF-8" standalone="no"?>
<!DOCTYPE svg PUBLIC "-//W3C//DTD SVG 1.1//EN"
 "http://www.w3.org/Graphics/SVG/1.1/DTD/svg11.dtd">
<!-- Generated by graphviz version 2.40.1 (20161225.0304)
 -->
<!-- Title: %3 Pages: 1 -->
<svg width="2452pt" height="601pt"
 viewBox="0.00 0.00 2452.00 601.00" xmlns="http://www.w3.org/2000/svg" xmlns:xlink="http://www.w3.org/1999/xlink">
<g id="graph0" class="graph" transform="scale(1 1) rotate(0) translate(4 597)">
<title>%3</title>
<polygon fill="#ffffff" stroke="transparent" points="-4,4 -4,-597 2448,-597 2448,4 -4,4"/>
<!-- 1 -->
<g id="node1" class="node">
<title>1</title>
<polygon fill="#ff0200" stroke="#ff0200" points="1667,-593 1617,-593 1617,-552 1667,-552 1667,-593"/>
<text text-anchor="middle" x="1642" y="-581" font-family="Arial" font-size="10.00" fill="#ffffff">main</text>
<text text-anchor="middle" x="1642" y="-570" font-family="Arial" font-size="10.00" fill="#ffffff">99.80%</text>
<text text-anchor="middle" x="1642" y="-559" font-family="Arial" font-size="10.00" fill="#ffffff">(0.00%)</text>
</g>
<!-- 2 -->
<g id="node2" class="node">
<title>2</title>
<polygon fill="#ff0200" stroke="#ff0200" points="1685.5,-512 1598.5,-512 1598.5,-460 1685.5,-460 1685.5,-512"/>
<text text-anchor="middle" x="1642" y="-500" font-family="Arial" font-size="10.00" fill="#ffffff">set_type(int, int)</text>
<text text-anchor="middle" x="1642" y="-489" font-family="Arial" font-size="10.00" fill="#ffffff">99.79%</text>
<text text-anchor="middle" x="1642" y="-478" font-family="Arial" font-size="10.00" fill="#ffffff">(25.00%)</text>
<text text-anchor="middle" x="1642" y="-467" font-family="Arial" font-size="10.00" fill="#ffffff">1001×</text>
</g>
<!-- 1&#45;&gt;2 -->
<g id="edge1" class="edge">
<title>1&#45;&gt;2</title>
<path fill="none" stroke="#ff0200" stroke-width="3.99" d="M1642,-551.5608C1642,-542.7288 1642,-532.1874 1642,-522.1675"/>
<polygon fill="#ff0200" stroke="#ff0200" stroke-width="3.99" points="1645.5001,-522.0078 1642,-512.0078 1638.5001,-522.0079 1645.5001,-522.0078"/>
<text text-anchor="middle" x="1659" y="-535" font-family="Arial" font-size="10.00" fill="#ff0200">99.79%</text>
<text text-anchor="middle" x="1659" y="-524" font-family="Arial" font-size="10.00" fill="#ff0200">1001×</text>
</g>
<!-- 3 -->
<g id="node3" class="node">
<title>3</title>
<polygon fill="#0aae30" stroke="#0aae30" points="1608.5,-420 1157.5,-420 1157.5,-368 1608.5,-368 1608.5,-420"/>
<text text-anchor="middle" x="1383" y="-408" font-family="Arial" font-size="10.00" fill="#ffffff">std::vector&lt;std::pair&lt;int, int&gt;, std::allocator&lt;std::pair&lt;int, int&gt; &gt; &gt;::push_back(std::pair&lt;int, int&gt;&amp;&amp;)</text>
<text text-anchor="middle" x="1383" y="-397" font-family="Arial" font-size="10.00" fill="#ffffff">44.24%</text>
<text text-anchor="middle" x="1383" y="-386" font-family="Arial" font-size="10.00" fill="#ffffff">(5.56%)</text>
<text text-anchor="middle" x="1383" y="-375" font-family="Arial" font-size="10.00" fill="#ffffff">10011330×</text>
</g>
<!-- 2&#45;&gt;3 -->
<g id="edge2" class="edge">
<title>2&#45;&gt;3</title>
<path fill="none" stroke="#0aae30" stroke-width="1.77" d="M1598.3571,-470.4975C1561.3942,-457.3678 1507.4469,-438.2051 1462.7945,-422.344"/>
<polygon fill="#0aae30" stroke="#0aae30" stroke-width="1.77" points="1463.3755,-420.0619 1456.277,-420.0289 1461.8056,-424.4813 1463.3755,-420.0619"/>
<text text-anchor="middle" x="1568.5" y="-443" font-family="Arial" font-size="10.00" fill="#0aae30">44.24%</text>
<text text-anchor="middle" x="1568.5" y="-432" font-family="Arial" font-size="10.00" fill="#0aae30">10010000×</text>
</g>
<!-- 5 -->
<g id="node4" class="node">
<title>5</title>
<polygon fill="#0c9b7b" stroke="#0c9b7b" points="2444,-420 1876,-420 1876,-368 2444,-368 2444,-420"/>
<text text-anchor="middle" x="2160" y="-408" font-family="Arial" font-size="10.00" fill="#ffffff">std::pair&lt;std::__decay_and_strip&lt;int&amp;&gt;::__type, std::__decay_and_strip&lt;int&amp;&gt;::__type&gt; std::make_pair&lt;int&amp;, int&amp;&gt;(int&amp;, int&amp;)</text>
<text text-anchor="middle" x="2160" y="-397" font-family="Arial" font-size="10.00" fill="#ffffff">30.56%</text>
<text text-anchor="middle" x="2160" y="-386" font-family="Arial" font-size="10.00" fill="#ffffff">(11.11%)</text>
<text text-anchor="middle" x="2160" y="-375" font-family="Arial" font-size="10.00" fill="#ffffff">10011330×</text>
</g>
<!-- 2&#45;&gt;5 -->
<g id="edge3" class="edge">
<title>2&#45;&gt;5</title>
<path fill="none" stroke="#0c9b7b" stroke-width="1.22" d="M1685.718,-478.2354C1756.0577,-465.7427 1897.6241,-440.5996 2007.8661,-421.0199"/>
<polygon fill="#0c9b7b" stroke="#0c9b7b" stroke-width="1.22" points="2008.3434,-422.8904 2013.422,-420.0332 2007.6701,-419.0997 2008.3434,-422.8904"/>
<text text-anchor="middle" x="1987.5" y="-443" font-family="Arial" font-size="10.00" fill="#0c9b7b">30.55%</text>
<text text-anchor="middle" x="1987.5" y="-432" font-family="Arial" font-size="10.00" fill="#0c9b7b">10010000×</text>
</g>
<!-- 4 -->
<g id="node5" class="node">
<title>4</title>
<polygon fill="#0ba651" stroke="#0ba651" points="1090.5,-328 513.5,-328 513.5,-276 1090.5,-276 1090.5,-328"/>
<text text-anchor="middle" x="802" y="-316" font-family="Arial" font-size="10.00" fill="#ffffff">void std::vector&lt;std::pair&lt;int, int&gt;, std::allocator&lt;std::pair&lt;int, int&gt; &gt; &gt;::emplace_back&lt;std::pair&lt;int, int&gt; &gt;(std::pair&lt;int, int&gt;&amp;&amp;)</text>
<text text-anchor="middle" x="802" y="-305" font-family="Arial" font-size="10.00" fill="#ffffff">38.69%</text>
<text text-anchor="middle" x="802" y="-294" font-family="Arial" font-size="10.00" fill="#ffffff">(11.11%)</text>
<text text-anchor="middle" x="802" y="-283" font-family="Arial" font-size="10.00" fill="#ffffff">10011330×</text>
</g>
<!-- 3&#45;&gt;4 -->
<g id="edge4" class="edge">
<title>3&#45;&gt;4</title>
<path fill="none" stroke="#0ba651" stroke-width="1.55" d="M1218.4507,-367.944C1141.6767,-355.787 1050.348,-341.3253 972.8077,-329.047"/>
<polygon fill="#0ba651" stroke="#0ba651" stroke-width="1.55" points="972.7646,-326.8432 966.3015,-328.0168 972.0858,-331.1298 972.7646,-326.8432"/>
<text text-anchor="middle" x="1186" y="-351" font-family="Arial" font-size="10.00" fill="#0ba651">38.69%</text>
<text text-anchor="middle" x="1186" y="-340" font-family="Arial" font-size="10.00" fill="#0ba651">10011330×</text>
</g>
<!-- 8 -->
<g id="node9" class="node">
<title>8</title>
<polygon fill="#0c5787" stroke="#0c5787" points="2277,-328 2043,-328 2043,-276 2277,-276 2277,-328"/>
<text text-anchor="middle" x="2160" y="-316" font-family="Arial" font-size="10.00" fill="#ffffff">std::pair&lt;int, int&gt;::pair&lt;int&amp;, int&amp;, true&gt;(int&amp;, int&amp;)</text>
<text text-anchor="middle" x="2160" y="-305" font-family="Arial" font-size="10.00" fill="#ffffff">15.28%</text>
<text text-anchor="middle" x="2160" y="-294" font-family="Arial" font-size="10.00" fill="#ffffff">(11.11%)</text>
<text text-anchor="middle" x="2160" y="-283" font-family="Arial" font-size="10.00" fill="#ffffff">10011330×</text>
</g>
<!-- 5&#45;&gt;8 -->
<g id="edge8" class="edge">
<title>5&#45;&gt;8</title>
<path fill="none" stroke="#0c5787" stroke-width=".61" d="M2160,-367.8826C2160,-356.8113 2160,-343.8373 2160,-332.3439"/>
<polygon fill="#0c5787" stroke="#0c5787" stroke-width=".61" points="2161.3651,-332.0827 2160,-328.1827 2158.6351,-332.0828 2161.3651,-332.0827"/>
<text text-anchor="middle" x="2184" y="-351" font-family="Arial" font-size="10.00" fill="#0c5787">15.28%</text>
<text text-anchor="middle" x="2184" y="-340" font-family="Arial" font-size="10.00" fill="#0c5787">10011330×</text>
</g>
<!-- 10 -->
<g id="node10" class="node">
<title>10</title>
<polygon fill="#0d327d" stroke="#0d327d" points="2435.5,-236 2154.5,-236 2154.5,-184 2435.5,-184 2435.5,-236"/>
<text text-anchor="middle" x="2295" y="-224" font-family="Arial" font-size="10.00" fill="#ffffff">int&amp; std::forward&lt;int&amp;&gt;(std::remove_reference&lt;int&amp;&gt;::type&amp;)</text>
<text text-anchor="middle" x="2295" y="-213" font-family="Arial" font-size="10.00" fill="#ffffff">8.33%</text>
<text text-anchor="middle" x="2295" y="-202" font-family="Arial" font-size="10.00" fill="#ffffff">(8.33%)</text>
<text text-anchor="middle" x="2295" y="-191" font-family="Arial" font-size="10.00" fill="#ffffff">40045320×</text>
</g>
<!-- 5&#45;&gt;10 -->
<g id="edge9" class="edge">
<title>5&#45;&gt;10</title>
<path fill="none" stroke="#0d1f78" stroke-width=".5" d="M2233.9544,-367.89C2252.0305,-358.0861 2269.4694,-345.0449 2281,-328 2298.5177,-302.1049 2300.2013,-265.5166 2298.6588,-239.9701"/>
<polygon fill="#0d1f78" stroke="#0d1f78" stroke-width=".5" points="2299.868,-239.6929 2298.4094,-236.2837 2297.4236,-239.8584 2299.868,-239.6929"/>
<text text-anchor="middle" x="2322.5" y="-305" font-family="Arial" font-size="10.00" fill="#0d1f78">4.17%</text>
<text text-anchor="middle" x="2322.5" y="-294" font-family="Arial" font-size="10.00" fill="#0d1f78">20022660×</text>
</g>
<!-- 6 -->
<g id="node6" class="node">
<title>6</title>
<polygon fill="#0c5f88" stroke="#0c5f88" points="472,-52 0,-52 0,0 472,0 472,-52"/>
<text text-anchor="middle" x="236" y="-40" font-family="Arial" font-size="10.00" fill="#ffffff">std::pair&lt;int, int&gt;&amp;&amp; std::forward&lt;std::pair&lt;int, int&gt; &gt;(std::remove_reference&lt;std::pair&lt;int, int&gt; &gt;::type&amp;)</text>
<text text-anchor="middle" x="236" y="-29" font-family="Arial" font-size="10.00" fill="#ffffff">16.67%</text>
<text text-anchor="middle" x="236" y="-18" font-family="Arial" font-size="10.00" fill="#ffffff">(16.67%)</text>
<text text-anchor="middle" x="236" y="-7" font-family="Arial" font-size="10.00" fill="#ffffff">30048373×</text>
</g>
<!-- 4&#45;&gt;6 -->
<g id="edge5" class="edge">
<title>4&#45;&gt;6</title>
<path fill="none" stroke="#0d257a" stroke-width=".5" d="M513.4932,-288.2307C365.3267,-278.1192 210.9933,-261.5974 188,-236 142.3608,-185.1921 186.2605,-100.0098 215.1784,-55.3494"/>
<polygon fill="#0d257a" stroke="#0d257a" stroke-width=".5" points="216.3441,-55.8049 217.2332,-52.2049 214.2931,-54.4647 216.3441,-55.8049"/>
<text text-anchor="middle" x="195" y="-167" font-family="Arial" font-size="10.00" fill="#0d257a">5.55%</text>
<text text-anchor="middle" x="195" y="-156" font-family="Arial" font-size="10.00" fill="#0d257a">10011330×</text>
</g>
<!-- 7 -->
<g id="node7" class="node">
<title>7</title>
<polygon fill="#0c708c" stroke="#0c708c" points="1025.5,-236 192.5,-236 192.5,-184 1025.5,-184 1025.5,-236"/>
<text text-anchor="middle" x="609" y="-224" font-family="Arial" font-size="10.00" fill="#ffffff">void std::allocator_traits&lt;std::allocator&lt;std::pair&lt;int, int&gt; &gt; &gt;::construct&lt;std::pair&lt;int, int&gt;, std::pair&lt;int, int&gt; &gt;(std::allocator&lt;std::pair&lt;int, int&gt; &gt;&amp;, std::pair&lt;int, int&gt;*, std::pair&lt;int, int&gt;&amp;&amp;)</text>
<text text-anchor="middle" x="609" y="-213" font-family="Arial" font-size="10.00" fill="#ffffff">19.44%</text>
<text text-anchor="middle" x="609" y="-202" font-family="Arial" font-size="10.00" fill="#ffffff">(0.00%)</text>
<text text-anchor="middle" x="609" y="-191" font-family="Arial" font-size="10.00" fill="#ffffff">10011330×</text>
</g>
<!-- 4&#45;&gt;7 -->
<g id="edge6" class="edge">
<title>4&#45;&gt;7</title>
<path fill="none" stroke="#0c708c" stroke-width=".78" d="M747.2102,-275.8826C722.3508,-264.0325 692.9185,-250.0026 667.6165,-237.9416"/>
<polygon fill="#0c708c" stroke="#0c708c" stroke-width=".78" points="668.227,-236.5266 663.5925,-236.0234 666.9017,-239.3069 668.227,-236.5266"/>
<text text-anchor="middle" x="753" y="-259" font-family="Arial" font-size="10.00" fill="#0c708c">19.44%</text>
<text text-anchor="middle" x="753" y="-248" font-family="Arial" font-size="10.00" fill="#0c708c">10011279×</text>
</g>
<!-- 14 -->
<g id="node8" class="node">
<title>14</title>
<polygon fill="#0d1876" stroke="#0d1876" points="2145.5,-236 1034.5,-236 1034.5,-184 2145.5,-184 2145.5,-236"/>
<text text-anchor="middle" x="1590" y="-224" font-family="Arial" font-size="10.00" fill="#ffffff">void std::vector&lt;std::pair&lt;int, int&gt;, std::allocator&lt;std::pair&lt;int, int&gt; &gt; &gt;::_M_realloc_insert&lt;std::pair&lt;int, int&gt; &gt;(__gnu_cxx::__normal_iterator&lt;std::pair&lt;int, int&gt;*, std::vector&lt;std::pair&lt;int, int&gt;, std::allocator&lt;std::pair&lt;int, int&gt; &gt; &gt; &gt;, std::pair&lt;int, int&gt;&amp;&amp;)</text>
<text text-anchor="middle" x="1590" y="-213" font-family="Arial" font-size="10.00" fill="#ffffff">2.59%</text>
<text text-anchor="middle" x="1590" y="-202" font-family="Arial" font-size="10.00" fill="#ffffff">(0.00%)</text>
<text text-anchor="middle" x="1590" y="-191" font-family="Arial" font-size="10.00" fill="#ffffff">51×</text>
</g>
<!-- 4&#45;&gt;14 -->
<g id="edge7" class="edge">
<title>4&#45;&gt;14</title>
<path fill="none" stroke="#0d1876" stroke-width=".5" d="M1024.9123,-275.9747C1130.7183,-263.6217 1256.9526,-248.8837 1363.246,-236.4738"/>
<polygon fill="#0d1876" stroke="#0d1876" stroke-width=".5" points="1363.6844,-237.656 1367.0187,-236.0333 1363.4003,-235.2226 1363.6844,-237.656"/>
<text text-anchor="middle" x="1304" y="-259" font-family="Arial" font-size="10.00" fill="#0d1876">2.59%</text>
<text text-anchor="middle" x="1304" y="-248" font-family="Arial" font-size="10.00" fill="#0d1876">51×</text>
</g>
<!-- 7&#45;&gt;6 -->
<g id="edge10" class="edge">
<title>7&#45;&gt;6</title>
<path fill="none" stroke="#0d257a" stroke-width=".5" d="M335.3208,-183.9041C291.955,-174.4318 256.3165,-161.5395 241,-144 220.2189,-120.2027 222.6421,-82.3048 227.8652,-55.9009"/>
<polygon fill="#0d257a" stroke="#0d257a" stroke-width=".5" points="229.0766,-56.0916 228.5838,-52.4163 226.6771,-55.5967 229.0766,-56.0916"/>
<text text-anchor="middle" x="265" y="-121" font-family="Arial" font-size="10.00" fill="#0d257a">5.55%</text>
<text text-anchor="middle" x="265" y="-110" font-family="Arial" font-size="10.00" fill="#0d257a">10011330×</text>
</g>
<!-- 9 -->
<g id="node11" class="node">
<title>9</title>
<polygon fill="#0d4f85" stroke="#0d4f85" points="926.5,-144 293.5,-144 293.5,-92 926.5,-92 926.5,-144"/>
<text text-anchor="middle" x="610" y="-132" font-family="Arial" font-size="10.00" fill="#ffffff">void __gnu_cxx::new_allocator&lt;std::pair&lt;int, int&gt; &gt;::construct&lt;std::pair&lt;int, int&gt;, std::pair&lt;int, int&gt; &gt;(std::pair&lt;int, int&gt;*, std::pair&lt;int, int&gt;&amp;&amp;)</text>
<text text-anchor="middle" x="610" y="-121" font-family="Arial" font-size="10.00" fill="#ffffff">13.88%</text>
<text text-anchor="middle" x="610" y="-110" font-family="Arial" font-size="10.00" fill="#ffffff">(5.56%)</text>
<text text-anchor="middle" x="610" y="-99" font-family="Arial" font-size="10.00" fill="#ffffff">10011330×</text>
</g>
<!-- 7&#45;&gt;9 -->
<g id="edge11" class="edge">
<title>7&#45;&gt;9</title>
<path fill="none" stroke="#0d4f85" stroke-width=".56" d="M609.2839,-183.8826C609.4053,-172.7142 609.5477,-159.6095 609.6735,-148.0418"/>
<polygon fill="#0d4f85" stroke="#0d4f85" stroke-width=".56" points="610.97,-147.8966 609.7154,-144.1827 608.3802,-147.8684 610.97,-147.8966"/>
<text text-anchor="middle" x="634" y="-167" font-family="Arial" font-size="10.00" fill="#0d4f85">13.88%</text>
<text text-anchor="middle" x="634" y="-156" font-family="Arial" font-size="10.00" fill="#0d4f85">10011330×</text>
</g>
<!-- 12 -->
<g id="node13" class="node">
<title>12</title>
<polygon fill="#0d1876" stroke="#0d1876" points="1867.5,-144 1312.5,-144 1312.5,-92 1867.5,-92 1867.5,-144"/>
<text text-anchor="middle" x="1590" y="-132" font-family="Arial" font-size="10.00" fill="#ffffff">std::_Vector_base&lt;std::pair&lt;int, int&gt;, std::allocator&lt;std::pair&lt;int, int&gt; &gt; &gt;::_M_deallocate(std::pair&lt;int, int&gt;*, unsigned long)</text>
<text text-anchor="middle" x="1590" y="-121" font-family="Arial" font-size="10.00" fill="#ffffff">2.78%</text>
<text text-anchor="middle" x="1590" y="-110" font-family="Arial" font-size="10.00" fill="#ffffff">(0.00%)</text>
<text text-anchor="middle" x="1590" y="-99" font-family="Arial" font-size="10.00" fill="#ffffff">55×</text>
</g>
<!-- 14&#45;&gt;12 -->
<g id="edge16" class="edge">
<title>14&#45;&gt;12</title>
<path fill="none" stroke="#0d1876" stroke-width=".5" d="M1590,-183.8826C1590,-172.6171 1590,-159.3815 1590,-147.7404"/>
<polygon fill="#0d1876" stroke="#0d1876" stroke-width=".5" points="1591.2251,-147.6827 1590,-144.1827 1588.7751,-147.6828 1591.2251,-147.6827"/>
<text text-anchor="middle" x="1604" y="-167" font-family="Arial" font-size="10.00" fill="#0d1876">2.58%</text>
<text text-anchor="middle" x="1604" y="-156" font-family="Arial" font-size="10.00" fill="#0d1876">51×</text>
</g>
<!-- 8&#45;&gt;10 -->
<g id="edge12" class="edge">
<title>8&#45;&gt;10</title>
<path fill="none" stroke="#0d1f78" stroke-width=".5" d="M2195.0403,-275.956C2208.6271,-266.0594 2224.4022,-254.8124 2239,-245 2242.4195,-242.7015 2245.9825,-240.3586 2249.5813,-238.029"/>
<polygon fill="#0d1f78" stroke="#0d1f78" stroke-width=".5" points="2250.3322,-239.0025 2252.6104,-236.0766 2249.0049,-236.9432 2250.3322,-239.0025"/>
<text text-anchor="middle" x="2263.5" y="-259" font-family="Arial" font-size="10.00" fill="#0d1f78">4.17%</text>
<text text-anchor="middle" x="2263.5" y="-248" font-family="Arial" font-size="10.00" fill="#0d1f78">20022660×</text>
</g>
<!-- 9&#45;&gt;6 -->
<g id="edge13" class="edge">
<title>9&#45;&gt;6</title>
<path fill="none" stroke="#0d257a" stroke-width=".5" d="M503.827,-91.8826C454.2662,-79.6912 395.326,-65.1925 345.3716,-52.9043"/>
<polygon fill="#0d257a" stroke="#0d257a" stroke-width=".5" points="345.482,-51.67 341.7907,-52.0234 344.8967,-54.049 345.482,-51.67"/>
<text text-anchor="middle" x="492" y="-75" font-family="Arial" font-size="10.00" fill="#0d257a">5.55%</text>
<text text-anchor="middle" x="492" y="-64" font-family="Arial" font-size="10.00" fill="#0d257a">10011330×</text>
</g>
<!-- 11 -->
<g id="node12" class="node">
<title>11</title>
<polygon fill="#0d1876" stroke="#0d1876" points="693,-52 527,-52 527,0 693,0 693,-52"/>
<text text-anchor="middle" x="610" y="-40" font-family="Arial" font-size="10.00" fill="#ffffff">operator new(unsigned long, void*)</text>
<text text-anchor="middle" x="610" y="-29" font-family="Arial" font-size="10.00" fill="#ffffff">2.78%</text>
<text text-anchor="middle" x="610" y="-18" font-family="Arial" font-size="10.00" fill="#ffffff">(2.78%)</text>
<text text-anchor="middle" x="610" y="-7" font-family="Arial" font-size="10.00" fill="#ffffff">10025662×</text>
</g>
<!-- 9&#45;&gt;11 -->
<g id="edge14" class="edge">
<title>9&#45;&gt;11</title>
<path fill="none" stroke="#0d1876" stroke-width=".5" d="M610,-91.8826C610,-80.6171 610,-67.3815 610,-55.7404"/>
<polygon fill="#0d1876" stroke="#0d1876" stroke-width=".5" points="611.2251,-55.6827 610,-52.1827 608.7751,-55.6828 611.2251,-55.6827"/>
<text text-anchor="middle" x="634" y="-75" font-family="Arial" font-size="10.00" fill="#0d1876">2.77%</text>
<text text-anchor="middle" x="634" y="-64" font-family="Arial" font-size="10.00" fill="#0d1876">10011330×</text>
</g>
<!-- 13 -->
<g id="node14" class="node">
<title>13</title>
<polygon fill="#0d1876" stroke="#0d1876" points="1899.5,-52 1280.5,-52 1280.5,0 1899.5,0 1899.5,-52"/>
<text text-anchor="middle" x="1590" y="-40" font-family="Arial" font-size="10.00" fill="#ffffff">std::allocator_traits&lt;std::allocator&lt;std::pair&lt;int, int&gt; &gt; &gt;::deallocate(std::allocator&lt;std::pair&lt;int, int&gt; &gt;&amp;, std::pair&lt;int, int&gt;*, unsigned long)</text>
<text text-anchor="middle" x="1590" y="-29" font-family="Arial" font-size="10.00" fill="#ffffff">2.78%</text>
<text text-anchor="middle" x="1590" y="-18" font-family="Arial" font-size="10.00" fill="#ffffff">(2.78%)</text>
<text text-anchor="middle" x="1590" y="-7" font-family="Arial" font-size="10.00" fill="#ffffff">51×</text>
</g>
<!-- 12&#45;&gt;13 -->
<g id="edge15" class="edge">
<title>12&#45;&gt;13</title>
<path fill="none" stroke="#0d1876" stroke-width=".5" d="M1590,-91.8826C1590,-80.6171 1590,-67.3815 1590,-55.7404"/>
<polygon fill="#0d1876" stroke="#0d1876" stroke-width=".5" points="1591.2251,-55.6827 1590,-52.1827 1588.7751,-55.6828 1591.2251,-55.6827"/>
<text text-anchor="middle" x="1604" y="-75" font-family="Arial" font-size="10.00" fill="#0d1876">2.78%</text>
<text text-anchor="middle" x="1604" y="-64" font-family="Arial" font-size="10.00" fill="#0d1876">51×</text>
</g>
</g>
</svg>
